[img]http://imageshack.us/a/img254/421/thescorpionking2002wsfr.jpg[/img]

[b][size=200][color=black]PLOT[/color][/size][/b]

[code]A desert warrior rises up against the evil army that is destroying his homeland. 
He captures the enemy's key sorcerer, takes her deep into the desert and prepares for a final showdown.[/code]

[b][size=200][color=black]IMDB[/color][/size][/b]

[code]http://www.imdb.com/title/tt0277296/[/code]

[b][size=200][color=black]MOVIE INFO[/color][/size][/b]

[code]The Scorpion King [2002] DvdRip x264 AAC-V3nom

Format                           : MPEG-4
Format profile                   : Base Media / Version 2
Codec ID                         : mp42
File size                        : 321 MiB
Duration                         : 1h 27mn
Overall bit rate                 : 513 Kbps
Encoded date                     : UTC 2012-10-13 07:43:55
Tagged date                      : UTC 2012-10-13 07:58:31

Video
ID                               : 1
Format                           : AVC
Format/Info                      : Advanced Video Codec
Format profile                   : Main@L2.1
Format settings, CABAC           : Yes
Format settings, ReFrames        : 4 frames
Codec ID                         : avc1
Codec ID/Info                    : Advanced Video Coding
Duration                         : 1h 27mn
Bit rate mode                    : Variable
Bit rate                         : 400 Kbps
Width                            : 544 pixels
Height                           : 224 pixels
Display aspect ratio             : 2.40:1
Frame rate mode                  : Constant
Frame rate                       : 25.000 fps
Color space                      : YUV
Chroma subsampling               : 4:2:0
Bit depth                        : 8 bits
Scan type                        : Progressive
Bits/(Pixel*Frame)               : 0.131
Stream size                      : 249 MiB (77%)
Writing library                  : x264 core 120
Encoded date                     : UTC 2012-10-13 07:43:55
Tagged date                      : UTC 2012-10-13 07:58:28

Audio
ID                               : 2
Format                           : AAC
Format/Info                      : Advanced Audio Codec
Format profile                   : LC
Codec ID                         : 40
Duration                         : 1h 27mn
Bit rate mode                    : Variable
Bit rate                         : 112 Kbps
Maximum bit rate                 : 219 Kbps
Channel(s)                       : 2 channels
Channel positions                : Front: L R
Sampling rate                    : 48.0 KHz
Compression mode                 : Lossy
Stream size                      : 70.0 MiB (22%)
Encoded date                     : UTC 2012-10-13 07:43:55
Tagged date                      : UTC 2012-10-13 07:58:27[/code]

[b][size=200][color=black]SCREENSHOTS[/color][/size][/b]

[img]http://imageshack.us/a/img841/1642/thescorpionking2002dvdr.jpg[/img]

[img]http://kastatic.com/i2/users/133df62bbf28e62494bb17fe11078f1a.gif[/img][img]http://kastatic.com/i2/users/133df62bbf28e62494bb17fe11078f1a.gif[/img]